<svg width="70" height="50" viewBox="0 0 203 93" fill="none" xmlns="http://www.w3.org/2000/svg">
<g clip-path="url(#clip0_1204_221)">
<path d="M0.0253906 0H202.975V93H0.0253906V0Z" fill="#787878"/>
<path d="M41.8409 28.4885C43.7941 27.8571 45.8775 27.5204 48.039 27.5204C57.5011 27.5204 65.4007 34.0363 67.2063 42.6991L80.6182 40.0472C77.5452 25.3315 64.1246 14.2527 48.039 14.2527C44.3497 14.2527 40.8166 14.8336 37.5005 15.9111L41.8409 28.4885Z" fill="#FFCB05"/>
<path d="M26.0159 70.6318L35.0874 60.6895C31.0421 57.2126 28.49 52.1362 28.49 46.4789C28.49 40.8301 31.0421 35.7537 35.0874 32.2852L26.0159 22.3345C19.1407 28.2443 14.8003 36.8734 14.8003 46.4789C14.8003 56.093 19.1407 64.722 26.0159 70.6318" fill="#00A4E0"/>
<path d="M67.2063 50.2842C65.392 58.9385 57.5011 65.446 48.0477 65.446C45.8775 65.446 43.7854 65.1093 41.8409 64.4695L37.5005 77.0637C40.8166 78.1328 44.3583 78.7137 48.0477 78.7137C64.1159 78.7137 77.5278 67.6517 80.6182 52.9529L67.2063 50.2842Z" fill="#EF4123"/>
<path d="M92.3458 61.102C91.9031 60.4117 91.3128 59.3089 90.9482 58.4923C88.8214 53.7105 88.7259 48.7604 90.5142 44.0123C92.4847 38.8012 96.2522 34.8192 101.122 32.7819C107.242 30.2311 114.005 30.7278 119.873 34.1036C123.597 36.1746 126.236 39.3737 128.241 43.9029C128.493 44.4837 128.719 45.0983 128.944 45.6287L92.3458 61.102ZM104.568 40.4681C100.219 42.2781 97.9797 46.2348 98.4485 50.865L116.852 43.1789C113.683 39.5757 109.569 38.3803 104.568 40.4681V40.4681ZM119.144 57.1874C119.135 57.1874 119.135 57.1958 119.135 57.1958L118.753 56.9432C117.65 58.669 115.94 60.0749 113.779 60.9842C109.664 62.7184 105.853 62.2722 103.11 59.9402L102.858 60.3107C102.858 60.3107 102.858 60.3022 102.85 60.3022L98.1794 67.0792C99.3426 67.8621 100.584 68.5188 101.886 69.0491C107.043 71.1285 112.32 71.0275 117.52 68.8387C121.279 67.256 124.231 64.8483 126.245 61.7923L119.144 57.1874ZM141.731 22.8143V60.479L147.773 62.8531L144.344 70.615L137.677 67.9211C136.184 67.2897 135.16 66.3299 134.396 65.244C133.658 64.1411 133.111 62.6174 133.111 60.5801V22.8143H141.731ZM157.374 50.8903C157.374 47.6828 158.841 44.8037 161.15 42.8505L154.952 36.1494C150.751 39.7525 148.103 45.0141 148.103 50.8734C148.094 56.7412 150.742 62.0112 154.935 65.6144L161.124 58.9132C158.824 56.9517 157.374 54.0893 157.374 50.8903V50.8903ZM168.381 61.5735C167.166 61.5735 165.985 61.3714 164.892 61.0178L161.931 69.5458C163.954 70.2025 166.116 70.5645 168.373 70.5645C178.182 70.5729 186.368 63.8212 188.269 54.8554L179.172 53.0539C178.139 57.9282 173.703 61.5819 168.381 61.5735V61.5735ZM168.407 31.2161C166.159 31.2161 163.997 31.5697 161.975 32.2179L164.909 40.7543C166.011 40.4007 167.183 40.2071 168.399 40.2071C173.729 40.2155 178.173 43.886 179.18 48.7688L188.278 46.9841C186.411 38.0014 178.225 31.2245 168.407 31.2161V31.2161Z" fill="white"/>
</g>
<defs>
<clipPath id="clip0_1204_221">
<rect width="203" height="93" rx="15" fill="white"/>
</clipPath>
</defs>
</svg>
